<svg width="189" height="26" viewBox="0 0 189 26" fill="none" xmlns="http://www.w3.org/2000/svg">
<path d="M0 0.705426H10.0818V5.84496C11.2187 3.86305 12.5061 2.40181 13.9439 1.46124C15.4153 0.48708 17.1541 0 19.1604 0C21.1333 0 22.8387 0.503876 24.2765 1.51163C25.7478 2.48579 26.8513 3.81266 27.5869 5.49225C29.727 1.83075 32.8368 0 36.9164 0C38.8558 0 40.5445 0.520672 41.9823 1.56201C43.4536 2.60336 44.5905 4.11499 45.3931 6.0969C46.1956 8.04522 46.5969 10.3463 46.5969 13V25.5969H36.0135V13C36.0135 11.2868 35.7126 9.99354 35.1107 9.12015C34.5422 8.24677 33.7397 7.81008 32.7031 7.81008C31.5662 7.81008 30.5797 8.29716 29.7437 9.27132C28.9412 10.2455 28.54 11.4212 28.54 12.7984V25.5969H18.0569V13C18.0569 11.2868 17.756 9.99354 17.1541 9.12015C16.5856 8.24677 15.7664 7.81008 14.6963 7.81008C13.5594 7.81008 12.5897 8.29716 11.7872 9.27132C10.9846 10.2455 10.5834 11.4212 10.5834 12.7984V25.5969H0V0.705426Z" fill="black"/>
<path d="M60.6595 26C57.8507 26 55.3428 25.4457 53.1358 24.3372C50.9623 23.2287 49.2569 21.7003 48.0197 19.7519C46.8159 17.77 46.214 15.5026 46.214 12.9496C46.214 10.3966 46.8326 8.14599 48.0699 6.19767C49.3071 4.21576 51.0125 2.68734 53.186 1.6124C55.3929 0.537468 57.9009 0 60.7097 0C63.552 0 66.0599 0.554263 68.2334 1.66279C70.4404 2.73773 72.1457 4.24935 73.3495 6.19767C74.5533 8.14599 75.1552 10.3966 75.1552 12.9496C75.1552 15.5362 74.5366 17.8204 73.2994 19.8023C72.0956 21.7506 70.3902 23.2791 68.1833 24.3876C66.0097 25.4625 63.5018 26 60.6595 26ZM60.7599 18.4419C62.1308 18.4419 63.251 17.938 64.1205 16.9302C65.0233 15.8889 65.4747 14.562 65.4747 12.9496C65.4747 11.3372 65.0233 10.0271 64.1205 9.01938C63.251 7.97803 62.1308 7.45736 60.7599 7.45736C59.3889 7.45736 58.252 7.97803 57.3491 9.01938C56.4797 10.0271 56.045 11.3372 56.045 12.9496C56.045 14.562 56.4797 15.8889 57.3491 16.9302C58.252 17.938 59.3889 18.4419 60.7599 18.4419Z" fill="black"/>
<path d="M74.9021 0.705426H85.4854V5.84496C86.2545 3.86305 87.2911 2.40181 88.5953 1.46124C89.9328 0.48708 91.4877 0 93.26 0L94.7145 8.21318C91.5379 8.21318 89.1971 8.56589 87.6924 9.27132C86.2211 9.94315 85.4854 11.0181 85.4854 12.4961V25.5969H74.9021V0.705426Z" fill="black"/>
<path d="M106.265 26C103.49 26 101.016 25.4457 98.842 24.3372C96.7019 23.1951 95.03 21.6499 93.8262 19.7015C92.6224 17.7196 92.0205 15.4858 92.0205 13C92.0205 10.447 92.6391 8.17959 93.8763 6.19767C95.1136 4.21576 96.7855 2.68734 98.8922 1.6124C100.999 0.537468 103.34 0 105.914 0C108.389 0 110.495 0.554263 112.234 1.66279C114.006 2.73773 115.327 4.21576 116.197 6.0969C117.066 7.94444 117.501 10.0271 117.501 12.345C117.501 12.9496 117.467 13.3863 117.4 13.655L102.353 15.6202C102.754 16.7959 103.406 17.6525 104.309 18.1899C105.212 18.6938 106.399 18.9457 107.87 18.9457C110.144 18.9457 112.602 18.3579 115.244 17.1822L116.498 23.9341C113.388 25.3114 109.977 26 106.265 26ZM109.726 9.27132C109.191 7.15504 107.921 6.0969 105.914 6.0969C104.71 6.0969 103.757 6.55039 103.055 7.45736C102.353 8.36434 101.985 9.54005 101.952 10.9845L109.726 9.27132Z" fill="black"/>
<path d="M117.133 0.705426H127.215V5.84496C129.154 1.94832 132.23 0 136.444 0C139.654 0 142.162 1.15891 143.967 3.47674C145.807 5.76098 146.726 8.9354 146.726 13V25.5969H136.193V11.9419C136.193 10.4974 135.875 9.38889 135.24 8.61628C134.638 7.84367 133.785 7.45736 132.682 7.45736C131.879 7.45736 131.094 7.7261 130.324 8.26357C129.555 8.76744 128.92 9.50646 128.418 10.4806C127.95 11.4548 127.716 12.5633 127.716 13.8062V25.5969H117.133V0.705426Z" fill="black"/>
<path d="M158.64 26C156.466 26 154.427 25.4289 152.521 24.2868C150.648 23.1111 149.143 21.5323 148.006 19.5504C146.869 17.5349 146.301 15.301 146.301 12.8488C146.301 10.4302 146.869 8.24677 148.006 6.29845C149.143 4.31654 150.665 2.77132 152.571 1.66279C154.477 0.554263 156.5 0 158.64 0C160.379 0 161.984 0.48708 163.455 1.46124C164.96 2.4354 166.097 3.89664 166.866 5.84496V0H177.399V25.5969H166.866V20.9109C165.194 24.3036 162.452 26 158.64 26ZM161.9 18.0388C163.238 18.0388 164.375 17.5685 165.311 16.6279C166.281 15.6537 166.799 14.5116 166.866 13.2015V12.7984C166.799 11.4548 166.264 10.3127 165.261 9.37209C164.291 8.43152 163.171 7.96124 161.9 7.96124C160.496 7.96124 159.292 8.46512 158.289 9.47287C157.319 10.447 156.834 11.6227 156.834 13C156.834 14.4109 157.336 15.6034 158.339 16.5775C159.342 17.5517 160.529 18.0388 161.9 18.0388Z" fill="black"/>
<path d="M183.382 25.8992C181.61 25.8992 180.222 25.4121 179.219 24.438C178.216 23.4638 177.714 22.2377 177.714 20.7597C177.714 19.2481 178.233 18.022 179.269 17.0814C180.306 16.1408 181.677 15.6705 183.382 15.6705C185.054 15.6705 186.408 16.1744 187.445 17.1822C188.482 18.1563 189 19.3488 189 20.7597C189 22.3385 188.515 23.5982 187.545 24.5388C186.576 25.4457 185.188 25.8992 183.382 25.8992Z" fill="black"/>
</svg>
